<svg xmlns="http://www.w3.org/2000/svg" viewBox="0 0 512 512" width="512" height="512">
  <path d="M 63.0,54.0 L 54.5,62.5 L 45.5,75.0 L 38.0,93.5 L 35.5,109.0 L 36.0,407.0 L 38.0,417.5 L 42.0,428.5 L 48.5,440.5 L 56.0,450.0 L 71.0,463.0 L 82.5,469.0 L 96.0,473.5 L 113.0,475.5 L 400.5,475.5 L 411.0,474.5 L 423.0,471.5 L 437.0,465.0 L 449.0,456.5 L 459.5,445.5 L 467.0,434.0 L 473.5,418.0 L 475.5,407.0 L 476.0,110.0 L 471.5,87.0 L 465.5,74.5 L 457.0,62.5 L 443.5,50.0 L 433.0,43.5 L 418.5,38.0 L 404.0,35.5 L 107.5,35.5 L 86.5,40.0 L 75.0,45.5 Z" fill="#EEECEA"/>
  <path d="M 85.5,372.0 L 85.5,377.5 L 87.0,380.5 L 94.5,389.5 L 107.5,401.5 L 126.0,412.0 L 144.0,417.0 L 149.5,422.0 L 157.5,425.5 L 345.0,425.5 L 353.0,422.0 L 358.5,417.0 L 376.5,412.0 L 389.0,405.5 L 401.0,396.5 L 416.5,379.0 L 417.5,376.0 L 417.0,372.0 L 414.0,368.0 L 411.0,366.5 L 329.0,366.0 L 338.5,357.5 L 349.5,344.0 L 367.0,341.5 L 383.5,336.0 L 400.0,326.5 L 412.0,315.5 L 419.0,305.5 L 425.0,291.0 L 426.0,285.5 L 425.0,268.5 L 420.5,258.0 L 417.0,253.0 L 412.0,248.0 L 403.5,242.5 L 391.5,239.0 L 381.0,239.0 L 370.0,242.5 L 369.0,241.5 L 369.0,225.0 L 365.0,220.0 L 362.0,219.0 L 133.5,219.5 L 130.0,222.0 L 128.0,226.5 L 128.0,283.0 L 131.0,305.5 L 135.5,320.5 L 143.5,337.5 L 153.0,351.0 L 167.0,364.5 L 167.5,366.5 L 91.5,366.5 L 88.5,368.0 Z M 113.5,384.0 L 389.0,384.0 L 380.0,391.0 L 371.5,395.5 L 361.5,399.0 L 347.5,401.5 L 155.5,401.5 L 145.5,400.0 L 131.0,395.5 L 122.0,390.5 Z M 399.0,259.5 L 406.0,267.0 L 409.5,277.5 L 408.5,286.5 L 404.5,296.5 L 398.0,305.5 L 385.0,316.0 L 372.5,322.0 L 360.5,325.5 L 368.0,296.5 L 369.5,264.0 L 374.5,259.0 L 381.5,256.0 L 390.5,256.0 Z M 145.5,236.0 L 351.5,236.0 L 352.5,237.0 L 352.0,286.0 L 349.5,302.0 L 344.5,318.0 L 334.0,336.5 L 321.0,350.5 L 310.0,358.5 L 297.5,364.0 L 284.0,366.5 L 213.5,366.5 L 197.0,363.0 L 186.0,357.5 L 176.5,350.5 L 163.0,336.0 L 154.0,320.5 L 147.5,300.5 L 145.0,283.5 Z M 261.0,85.5 L 247.0,85.5 L 239.0,87.0 L 228.5,91.0 L 219.0,97.0 L 210.5,105.5 L 204.5,115.0 L 201.5,123.0 L 199.5,133.5 L 200.5,149.0 L 203.5,158.5 L 207.0,165.0 L 220.0,179.5 L 233.5,189.5 L 239.0,195.0 L 241.0,201.0 L 245.5,204.5 L 252.0,204.0 L 256.0,200.0 L 256.5,193.5 L 255.0,189.0 L 251.5,183.5 L 246.0,178.0 L 226.5,162.5 L 220.5,154.5 L 217.0,145.5 L 217.0,130.0 L 219.5,122.5 L 224.5,115.0 L 234.0,107.0 L 239.0,104.5 L 249.0,102.0 L 259.0,102.0 L 266.5,104.0 L 274.5,108.5 L 280.5,115.0 L 285.0,126.0 L 285.0,135.5 L 281.5,143.0 L 274.0,148.5 L 265.0,149.0 L 260.5,147.0 L 256.5,143.0 L 255.0,139.0 L 256.0,130.5 L 252.0,124.5 L 245.0,123.5 L 239.5,129.0 L 238.5,142.0 L 242.5,152.5 L 250.5,160.5 L 260.0,165.0 L 265.0,166.0 L 275.5,165.5 L 288.5,159.5 L 297.0,150.0 L 302.0,135.5 L 302.0,124.5 L 300.5,118.0 L 296.5,108.5 L 291.0,101.0 L 280.0,92.0 L 273.0,88.5 Z" fill="#2D3133" fill-rule="evenodd"/>
</svg>